<?xml version="1.0" encoding="utf-8"?>
<!-- Generator: Adobe Illustrator 27.0.0, SVG Export Plug-In . SVG Version: 6.00 Build 0)  -->
<svg version="1.1" id="Layer_1" xmlns="http://www.w3.org/2000/svg" xmlns:xlink="http://www.w3.org/1999/xlink" x="0px" y="0px"
	 viewBox="0 0 1967.9 806.9" style="enable-background:new 0 0 1967.9 806.9;" xml:space="preserve">
<style type="text/css">
	.st0{fill:none;stroke:#000000;stroke-width:13;stroke-linecap:round;stroke-linejoin:round;}
	.st1{fill:none;stroke:#000000;stroke-width:13;stroke-linecap:round;stroke-miterlimit:10;}
</style>
<path class="st0" d="M6.5,800.2c0,0,247.7,12.6,396.1-190.3c37.9-51.8,43.2-144.7,28-204c-13.2-51.2-54.5-76.6-104.3-84.6
	c-38.2-6.2-94.3-3.4-116.1,34.7c-47.9,83.5-36.9,175.7,39.9,237.2c73.5,58.8,178,23.5,252.7-14c77.4-38.8,158.4-90.4,204-165.9
	c30.3-50.2,60.9-114.9,71-173c1.1-6.6,6.2-66.6-16-54.6c-2.3,1.3-3.7,3.8-4.7,6.3c-5.9,14.3-6.6,30.2-6.8,45.6
	c-0.8,46.9,1.3,93.7,0.9,140.6c0.4-31.9,5.3-72.9,35.1-91.6c20.1-12.6,16.5,53.9,16.5,58c0,5.5,0.4,11.8,4.8,15
	c7.1,5.1,16.3-2.3,21.8-9.2c24.7-30.7,49.4-61.4,74.1-92.2c-13.6-6-30.4-0.6-40.6,10.2s-14.8,25.9-16.2,40.7
	c-1.2,12.4,1.5,27.8,13.2,32.1c13.5,4.9,26.3-9.1,32.3-22.2c10.5-22.7,14.9-48.3,12.7-73.2c-4.7,22.2-5.4,45.2-2.1,67.6
	c0.9,6.5,3.6,14.3,10.1,15.3c5.2,0.8,9.6-3.5,12.7-7.7c16.3-22.8,15.6-53.3,24.7-79.8c1.3-3.7,2.9-7.5,6-9.7c7.6-5.4,18.7,2,21,11.1
	c2.3,9-1,18.4-2.9,27.6c-1.9,9.1-1.9,20,5.1,26.2c7,6.2,18.4,4.8,25.8-0.9c7.4-5.7,11.6-14.6,14.8-23.3
	c7.5-20.2,11.6-41.7,12.1-63.2c-0.6,51.3-1.2,102.6-1.8,153.9c-0.1,11.1-0.5,22.9-7,31.9s-21.5,12.5-28.5,3.9
	c-3.6-4.4-4.1-10.7-3.6-16.4c2.5-30.8,25.4-55.3,44.7-79.5c28.2-35.3,50.8-75,66.8-117.3c-12.5,1-23.5,10.5-28.2,22.2
	c-4.7,11.7-3.7,25.1,0.8,36.9c2.6,6.7,6.4,13.3,12.5,17.2c10.4,6.7,25.1,3.4,33.9-5.2c8.9-8.6,12.7-21.2,13.6-33.6
	c1.3-19.1-8.5-42.5-27.7-43.5c17.2,5.1,36.5,2.8,52-6.4c16.8-9.9,33.4-28,51.8-21.9c14.3,4.8,20,22.2,19.8,37.2
	c-0.2,12.6-3.6,25.7-12.1,35.1c-8.5,9.4-22.9,13.9-34.3,8.5c-17.9-8.4-18.9-33.6-13.5-52.6c3.5-12.4,9.9-25.7,22.2-29.8
	c7.2-2.4,15-1.1,22.5-0.8c19.5,0.6,39.2-6.5,53.9-19.4c0.7,45.3,1.4,90.6,2,136c0.3,17.5,0.2,36.1-9.5,50.7
	c-1.5,2.3-3.4,4.5-5.9,5.6c-8.3,3.7-16.3-6.3-18.1-15.2c-4.5-21.8,4.9-44.2,17.8-62.4c12.8-18.2,29.2-33.7,41.6-52.2
	c16.5-24.7,25.5-54.4,25.3-84.1c-3,15.2-11.8,75.5,10.8,80.5c0,0,30.3-9.5,41.6-63.4c0.3-9.9,0.6-19.8,0.8-29.6
	c-0.3,21.1-3.7,40.4,0.4,61.8c0.8,4.5,2.2,9.4,6.2,11.6c4.6,2.6,10.5,0.1,14.5-3.4c14.4-12.3,15.5-33.6,17.8-52.4
	s10.2-40.6,28.7-44.8c4.1,27.8,5.6,56,4.5,84.1c-3.3-27.3,3.5-55.8,18.6-78.8c6-9.2,16.5-18.4,26.7-14.4
	c8.3,3.2,11.4,13.6,10.8,22.5c-0.6,8.9-3.7,17.6-3,26.5s7.3,18.5,16.2,17.8c9.3-0.7,14.1-11.2,17.5-19.9c12.6-31.7,33.5-60,60-81.4
	c-15-4.7-32.1,2.8-41.3,15.4s-11.5,29.5-9.1,45c1.2,7.9,3.9,16.2,10.7,20.5c6.7,4.2,15.7,3.1,22.4-1.2c6.7-4.2,11.3-11,14.9-18
	c12.1-23.4,15.9-53.5,6.9-78.6c-0.4,56,1.8,112.2,2.7,168.2c0.1,8,0.2,16.3-2.7,23.7c-2.9,7.5-9.7,14-17.7,14.1
	c-15.6,0.2-21.4-21.1-17.8-36.2c6.9-28.9,29.1-51.5,51.5-71.1c34.7-30.3,75.6-58.7,121.7-58.8c32.2-0.1,62.7,13.7,94.4,19.1
	c42.7,7.3,86.3-0.7,128.9-8.7"/>
<path class="st1" d="M1256.2,78.9c9.6,1.1,18.8,4.8,25.9,11.4"/>
</svg>
